<svg height="512pt" viewBox="0 0 512 512.001" width="512pt" xmlns="http://www.w3.org/2000/svg">
  <style>
    path {
      fill: #EF6625;
      opacity: .5;
    }
  </style>
<path d="m324.242188 123.890625h-115.949219c-17.445313 0-31.636719-14.191406-31.636719-31.636719 0-10.054687 4.84375-19.394531 12.636719-25.28125-.394531-2.578125-.597657-5.1875-.597657-7.820312 0-28.152344 22.90625-51.054688 51.0625-51.054688 4.984376 0 9.859376.703125 14.558594 2.101563 9.035156-6.613281 19.933594-10.199219 31.269532-10.199219 29.230468 0 53.011718 23.777344 53.011718 53.007812 0 3.5625-.347656 7.070313-1.035156 10.5 10.882812 4.996094 18.316406 15.945313 18.316406 28.746094 0 17.445313-14.191406 31.636719-31.636718 31.636719zm-84.484376-95.84375c-17.152343 0-31.109374 13.953125-31.109374 31.105469 0 3.320312.519531 6.582031 1.542968 9.699218 1.664063 5.085938-.976562 10.578126-5.988281 12.453126-4.542969 1.699218-7.59375 6.097656-7.59375 10.949218 0 6.441406 5.242187 11.6875 11.6875 11.6875h115.945313c6.441406 0 11.6875-5.242187 11.6875-11.6875 0-6.367187-4.980469-11.496094-11.34375-11.679687-3.332032-.09375-6.394532-1.847657-8.164063-4.671875-1.773437-2.820313-2.015625-6.34375-.652344-9.382813 1.910157-4.257812 2.878907-8.804687 2.878907-13.515625 0-18.226562-14.832032-33.054687-33.058594-33.054687-8.394532 0-16.394532 3.148437-22.53125 8.867187-2.914063 2.714844-7.164063 3.433594-10.8125 1.835938-3.9375-1.726563-8.140625-2.605469-12.488282-2.605469zm0 0"/><path d="m152.605469 192.097656h-100.414063c-15.847656 0-28.738281-12.890625-28.738281-28.734375 0-8.859375 4.140625-17.105469 10.847656-22.476562-.277343-2.042969-.417969-4.109375-.417969-6.191407 0-25.117187 20.4375-45.554687 45.558594-45.554687 4.222656 0 8.355469.566406 12.351563 1.695313 7.949219-5.652344 17.453125-8.707032 27.335937-8.707032 26.050782 0 47.246094 21.191406 47.246094 47.242188 0 2.820312-.246094 5.601562-.730469 8.332031 9.367188 4.726563 15.695313 14.40625 15.695313 25.65625 0 15.847656-12.890625 28.738281-28.734375 28.738281zm-73.164063-83.003906c-14.121094 0-25.605468 11.484375-25.605468 25.601562 0 2.730469.425781 5.417969 1.265624 7.980469 1.667969 5.085938-.972656 10.582031-5.984374 12.453125-3.417969 1.277344-5.710938 4.585938-5.710938 8.230469 0 4.84375 3.941406 8.785156 8.785156 8.785156h100.414063c4.84375 0 8.785156-3.941406 8.785156-8.78125 0-4.789062-3.746094-8.644531-8.523437-8.78125-3.332032-.09375-6.398438-1.847656-8.167969-4.671875-1.773438-2.820312-2.015625-6.34375-.652344-9.386718 1.578125-3.507813 2.375-7.261719 2.375-11.152344 0-15.050782-12.242187-27.292969-27.292969-27.292969-6.925781 0-13.535156 2.601563-18.597656 7.320313-2.917969 2.714843-7.164062 3.4375-10.8125 1.835937-3.242188-1.421875-6.699219-2.140625-10.277344-2.140625zm0 0"/><path d="m461.515625 487.488281c-.648437 0-1.296875-.066406-1.949219-.199219-.628906-.117187-1.257812-.308593-1.859375-.558593-.597656-.25-1.179687-.5625-1.71875-.921875-.550781-.359375-1.0625-.78125-1.519531-1.238282-1.859375-1.859374-2.921875-4.429687-2.921875-7.050781 0-.648437.0625-1.308593.191406-1.949219.128907-.640624.320313-1.269531.570313-1.871093.25-.601563.558594-1.179688.917968-1.71875.359376-.550781.78125-1.0625 1.242188-1.519531 1.847656-1.863282 4.417969-2.921876 7.046875-2.921876 2.632813 0 5.203125 1.058594 7.0625 2.921876.460937.457031.878906.96875 1.238281 1.519531.359375.539062.671875 1.117187.921875 1.71875.25.601562.4375 1.230469.570313 1.871093.117187.640626.1875 1.300782.1875 1.949219 0 2.621094-1.058594 5.191407-2.917969 7.050781-1.859375 1.859376-4.429687 2.917969-7.0625 2.917969zm0 0"/><path d="m392.46875 273.054688c-10.992188 0-21.644531 1.492187-31.761719 4.285156l-34.972656-88.089844c-1.507813-3.800781-5.183594-6.292969-9.269531-6.292969h-30.4375c-5.507813 0-9.976563 4.464844-9.976563 9.976563 0 5.507812 4.46875 9.976562 9.976563 9.976562h23.664062l15.089844 38.003906h-75.839844v-7.859374c0-15.410157-12.535156-27.945313-27.945312-27.945313h-60.753906c-15.410157 0-27.949219 12.535156-27.949219 27.945313v17.835937c0 5.511719 4.464843 9.976563 9.976562 9.976563h38.265625l-13.308594 22.144531c-14.628906-6.402344-30.777343-9.957031-47.742187-9.957031-65.882813 0-119.484375 53.59375-119.484375 119.472656 0 65.875 53.601562 119.472656 119.484375 119.472656 65.273437 0 118.488281-52.609375 119.46875-117.648438h25.472656c3.253907 0 6.300781-1.582031 8.167969-4.246093l.429688-.613281c-.023438 1.007812-.035157 2.019531-.035157 3.035156 0 65.878906 53.597657 119.472656 119.480469 119.472656 12.269531 0 24.371094-1.851562 35.96875-5.511719 5.253906-1.65625 8.171875-7.257812 6.515625-12.511719-1.65625-5.253906-7.253906-8.171874-12.515625-6.515624-9.65625 3.042968-19.738281 4.589843-29.96875 4.589843-54.882812 0-99.53125-44.648437-99.53125-99.523437 0-39.445313 23.070312-73.601563 56.425781-89.695313l9.277344 23.378907c-24.097656 12.339843-40.628906 37.433593-40.628906 66.316406 0 41.054687 33.402343 74.453125 74.457031 74.453125 41.058594 0 74.460938-33.398438 74.460938-74.453125 0-41.054688-33.402344-74.453125-74.460938-74.453125-5.132812 0-10.144531.523437-14.988281 1.515625l-9.355469-23.570313c7.792969-1.96875 15.949219-3.011719 24.34375-3.011719 54.882812 0 99.53125 44.644532 99.53125 99.519532 0 14.570312-3.074219 28.609375-9.140625 41.722656-2.3125 5-.132813 10.929688 4.867187 13.242188s10.929688.132812 13.242188-4.867188c7.289062-15.757812 10.984375-32.613281 10.984375-50.097656 0-65.878906-53.601563-119.472656-119.484375-119.472656zm0 64.96875c30.058594 0 54.507812 24.449218 54.507812 54.503906 0 30.050781-24.449218 54.5-54.507812 54.5-30.054688 0-54.507812-24.449219-54.507812-54.5 0-20.476563 11.347656-38.347656 28.089843-47.664063l17.148438 43.195313c1.550781 3.914062 5.304687 6.296875 9.273437 6.296875 1.226563 0 2.472656-.226563 3.679688-.707031 5.121094-2.03125 7.621094-7.832032 5.589844-12.953126l-16.738282-42.160156c2.441406-.335937 4.933594-.511718 7.464844-.511718zm-240.222656-104.96875c0-4.410157 3.585937-7.996094 7.996094-7.996094h60.753906c4.40625 0 7.996094 3.585937 7.996094 7.996094v7.859374h-76.746094zm-32.761719 258.996093c-54.882813 0-99.53125-44.648437-99.53125-99.523437s44.648437-99.519532 99.53125-99.519532c13.207031 0 25.820313 2.585938 37.363281 7.273438l-47.449218 78.957031c-1.855469 3.082031-1.902344 6.921875-.132813 10.050781 1.769531 3.132813 5.085937 5.066407 8.683594 5.066407h56.011719c-.964844 29.207031-25.03125 52.675781-54.476563 52.675781-30.054687 0-54.507813-24.453125-54.507813-54.503906 0-23.808594 15.925782-45.261719 38.726563-52.171875 5.273437-1.597657 8.253906-7.167969 6.65625-12.441407-1.601563-5.273437-7.171875-8.253906-12.441406-6.652343-14.96875 4.535156-28.429688 13.953125-37.90625 26.511719-9.804688 12.996093-14.984375 28.472656-14.984375 44.753906 0 41.054687 33.402344 74.453125 74.460937 74.453125 40.445313 0 73.460938-32.414063 74.433594-72.625h25.078125c-.976562 54.035156-45.242188 97.695312-99.515625 97.695312zm16.097656-117.648437 38.925781-64.773438c22.007813 14.652344 37.875 37.828125 42.855469 64.773438zm123.660157 0h-21.644532c-5.226562-34.199219-25.011718-63.675782-52.804687-81.882813l19.023437-31.652343h128.882813l2.234375 5.621093zm0 0"/></svg>
