<?xml version="1.0"?>
<svg xmlns="http://www.w3.org/2000/svg" width="512" height="512" viewBox="0 0 512 512">
  <style>
    path {
      fill: #EF6625;
      opacity: .5;
    }
  </style>
  <g>
    <path d="M464,456H418.49a47.988,47.988,0,0,0-40.5-85.91L368,350.11V336h8a8,8,0,0,0,0-16H344a8,8,0,0,0,0,16h8v8H288v-8a8,8,0,0,0-8-8H248a8,8,0,0,0-8,8v16a8,8,0,0,0,8,8h8a8,8,0,0,0,0-16h16v5.71l-13.7,21.92A47.984,47.984,0,0,0,213.51,456H160V351.66A96,96,0,0,0,224,192.5V192a72.2,72.2,0,0,0-29.34-57.98A47.549,47.549,0,0,0,200,112a48,48,0,0,0-96,0,47.549,47.549,0,0,0,5.34,22.02A72.2,72.2,0,0,0,80,192v.5a96,96,0,0,0,64,159.16v58.55l-10.01-5.72a40.1,40.1,0,1,0-7.96,13.89L144,428.64V456H16a8,8,0,0,0,0,16H464a8,8,0,0,0,0-16ZM119.61,396.28,99.97,385.05a8,8,0,1,0-7.94,13.9l19.63,11.21A23.982,23.982,0,1,1,120,392,24.16,24.16,0,0,1,119.61,396.28Zm-5.27-158.62L144,267.31V335.6A80,80,0,0,1,93.91,201a7.986,7.986,0,0,0,2.18-5.93c-.06-1.09-.09-2.1-.09-3.07a56.177,56.177,0,0,1,28.28-48.65,8,8,0,0,0,2.37-11.83A31.69,31.69,0,0,1,120,112a32,32,0,0,1,64,0,31.69,31.69,0,0,1-6.65,19.52,8,8,0,0,0,2.37,11.83A56.177,56.177,0,0,1,208,192c0,.97-.03,1.98-.09,3.07a7.986,7.986,0,0,0,2.18,5.93A80,80,0,0,1,160,335.6V315.31l29.66-29.65a8,8,0,0,0-11.32-11.32L160,292.69V264a8.008,8.008,0,0,0-2.34-5.66l-32-32a8,8,0,0,0-11.32,11.32ZM371,391.89,379.06,408H361.01A32,32,0,0,1,371,391.89Zm-11.78-23.55,4.47,8.93A48.045,48.045,0,0,0,344.68,408H334.43ZM345.57,360,320,400.91,294.43,360ZM240,448a32,32,0,0,1,0-64,31.712,31.712,0,0,1,9.64,1.49l-16.42,26.27a8,8,0,1,0,13.56,8.48l16.41-26.25A31.971,31.971,0,0,1,240,448Zm26.49,8a47.93,47.93,0,0,0,5.36-75.87L280,367.09l33.22,53.15c.02.04.05.07.07.11.14.21.29.42.45.62a1.71,1.71,0,0,0,.11.14,7.182,7.182,0,0,0,.65.7c.01.01.01.01.02.01a6.3,6.3,0,0,0,.68.58c.08.06.17.11.25.17a3.368,3.368,0,0,0,.31.21.915.915,0,0,0,.17.09c.18.11.38.21.57.31.14.06.27.13.41.19a5.314,5.314,0,0,0,.56.2c.15.05.3.11.45.15.19.05.38.08.57.12.16.03.31.07.46.09.23.03.46.04.69.05.12,0,.23.02.35.02h24.69a48.066,48.066,0,0,0,20.83,32ZM392,448a32.058,32.058,0,0,1-30.99-24H392a8,8,0,0,0,7.16-11.58L385.3,384.71A32,32,0,1,1,392,448Z"/>
    <path d="M496,456h-8a8,8,0,0,0,0,16h8a8,8,0,0,0,0-16Z"/>
  </g>
</svg>
